<svg version="1.1" xmlns="http://www.w3.org/2000/svg" xmlns:xlink="http://www.w3.org/1999/xlink" x="0px" y="0px" viewBox="0 0 32 32" enable-background="new 0 0 32 32" xml:space="preserve">
<g id="GUIDE">
</g>
<g id="ONLINE_EDUCATION">
</g>
<g id="TEST">
</g>
<g id="ONLINE_TEST">
</g>
<g id="RESEARCH_1_">
</g>
<g id="ZOOM">
</g>
<g id="ONLINE_WRITE">
</g>
<g id="TURORIAL">
</g>
<g id="QUESTION">
</g>
<g id="E-LEARNING">
</g>
<g id="ONLINE_GRADUATED">
</g>
<g id="E_BOOK">
</g>
<g id="AWARD">
</g>
<g id="DIGI_CAM">
</g>
<g id="TEST_TIME">
</g>
<g id="BOARD">
</g>
<g id="VIDEO">
</g>
<g id="IDEA">
<g>
<g>
<path d="M18,30h-4c-0.6,0-1-0.4-1-1s0.4-1,1-1h4c0.6,0,1,0.4,1,1S18.6,30,18,30z" id="id_101" style="fill: rgb(51, 51, 51);"></path>
</g>
<g>
<path d="M19,27h-6c-0.6,0-1-0.4-1-1s0.4-1,1-1h6c0.6,0,1,0.4,1,1S19.6,27,19,27z" id="id_102" style="fill: rgb(51, 51, 51);"></path>
</g>
<g>
<path d="M11,19.9V21c0,1.7,1.3,3,3,3h4c1.7,0,3-1.3,3-3v-1.1H11z" id="id_103" style="fill: rgb(51, 51, 51);"></path>
<path d="M10.3,17.9h11.4c2-1.7,3.3-4.2,3.3-6.9c0-5-4-9-9-9s-9,4-9,9C7,13.7,8.2,16.2,10.3,17.9z M11.3,9.3c0.4-0.4,1-0.4,1.4,0
				l1.3,1.3l1.3-1.3C15.5,9.1,15.7,9,16,9h0c0.3,0,0.5,0.1,0.7,0.3l1.3,1.3l1.3-1.3c0.4-0.4,1-0.4,1.4,0s0.4,1,0,1.4l-2,2
				C18.5,12.9,18.3,13,18,13s-0.5-0.1-0.7-0.3L16,11.4l-1.3,1.3C14.5,12.9,14.3,13,14,13c-0.3,0-0.5-0.1-0.7-0.3l-2-2
				C10.9,10.3,10.9,9.7,11.3,9.3z" id="id_104" style="fill: rgb(244, 255, 87);"></path>
</g>
</g>
</g>
<g id="CAHT">
</g>
<g id="CERTIFICATE">
</g>
<g id="NET_WORK">
</g>
</svg>