<?xml version="1.0" encoding="iso-8859-1"?>
<!-- Generator: Adobe Illustrator 19.0.0, SVG Export Plug-In . SVG Version: 6.00 Build 0)  -->
<svg version="1.1" id="Layer_1" xmlns="http://www.w3.org/2000/svg" xmlns:xlink="http://www.w3.org/1999/xlink" x="0px" y="0px"
	 viewBox="0 0 512 512" style="enable-background:new 0 0 512 512;" xml:space="preserve">
<path style="fill:#3B8BC0;" d="M256,155.358c0,0-253.597-53.389-256-53.895v342.083l256,41.703l24.265-164.945L256,155.358z"/>
<polygon style="fill:#174461;" points="256,155.358 256,485.249 512,443.546 512,101.463 "/>
<polygon style="fill:#4EB9FF;" points="256,106.827 0,65.065 0,407.148 256,448.851 280.265,283.905 "/>
<polygon style="fill:#3B8BC0;" points="256,106.827 256,448.851 512,407.148 512,65.065 "/>
<polygon style="fill:#FFF5D9;" points="256,70.429 280.265,234.221 256,398.012 48.531,354.334 48.531,26.751 "/>
<g>
	<path style="fill:#3B8BC0;" d="M207.481,154.302c-0.834,0-1.677-0.086-2.525-0.266L94.549,130.674
		c-6.555-1.388-10.745-7.826-9.358-14.382c1.388-6.557,7.829-10.737,14.382-9.357l110.408,23.363
		c6.555,1.388,10.745,7.826,9.358,14.382C218.131,150.387,213.092,154.302,207.481,154.302z"/>
	<path style="fill:#3B8BC0;" d="M207.481,236.198c-0.834,0-1.677-0.086-2.525-0.266L94.549,212.57
		c-6.555-1.388-10.745-7.826-9.358-14.382c1.387-6.557,7.828-10.742,14.382-9.358l110.408,23.363
		c6.555,1.388,10.745,7.826,9.358,14.382C218.131,232.283,213.092,236.198,207.481,236.198z"/>
	<path style="fill:#3B8BC0;" d="M207.481,318.094c-0.834,0-1.677-0.086-2.525-0.266L94.549,294.466
		c-6.555-1.388-10.745-7.826-9.358-14.382c1.388-6.557,7.828-10.739,14.382-9.358l110.408,23.363
		c6.555,1.388,10.745,7.826,9.358,14.382C218.131,314.179,213.092,318.094,207.481,318.094z"/>
</g>
<polygon style="fill:#9AD7FF;" points="256,70.429 256,398.012 463.469,354.334 463.469,26.751 "/>
<g>
	<path style="fill:#174461;" d="M304.519,154.302c-5.611,0-10.65-3.915-11.857-9.624c-1.388-6.555,2.803-12.994,9.358-14.382
		l110.408-23.363c6.561-1.388,12.995,2.803,14.382,9.358c1.388,6.555-2.803,12.994-9.358,14.382l-110.408,23.363
		C306.195,154.215,305.351,154.302,304.519,154.302z"/>
	<path style="fill:#174461;" d="M304.519,236.198c-5.611,0-10.65-3.915-11.857-9.624c-1.388-6.555,2.803-12.994,9.358-14.382
		l110.408-23.363c6.561-1.386,12.995,2.803,14.382,9.358c1.388,6.555-2.803,12.994-9.358,14.382l-110.408,23.363
		C306.195,236.111,305.351,236.198,304.519,236.198z"/>
	<path style="fill:#174461;" d="M304.519,318.094c-5.611,0-10.65-3.915-11.857-9.624c-1.388-6.555,2.803-12.994,9.358-14.382
		l110.408-23.363c6.561-1.384,12.995,2.804,14.382,9.358c1.388,6.555-2.803,12.994-9.358,14.382l-110.408,23.363
		C306.195,318.007,305.351,318.094,304.519,318.094z"/>
</g>
<g>
</g>
<g>
</g>
<g>
</g>
<g>
</g>
<g>
</g>
<g>
</g>
<g>
</g>
<g>
</g>
<g>
</g>
<g>
</g>
<g>
</g>
<g>
</g>
<g>
</g>
<g>
</g>
<g>
</g>
</svg>
